<svg width="415.208069" height="42.914062" viewBox="0 0 415.208 42.9141" fill="none" xmlns="http://www.w3.org/2000/svg" xmlns:xlink="http://www.w3.org/1999/xlink">
	<desc>
			Created with Pixso.
	</desc>
	<defs/>
	<path id="Каталог товаров" d="M6.15 19.44L12.38 19.44L22.23 33.59L29.28 33.59L17.37 16.26L28.85 0L22.23 0L12.58 14.06L6.15 14.06L6.15 0L-1.53e-5 0L-1.53e-5 33.59L6.15 33.59L6.15 19.44ZM51.39 10.39Q48.39 7.67 42.72 7.67Q39.55 7.67 36.72 8.49Q33.89 9.3 31.88 10.83L34.22 15.21Q35.66 14.01 37.75 13.34Q39.28 12.85 40.84 12.71Q41.42 12.66 42 12.66Q45.17 12.66 46.77 14.1Q47.09 14.39 47.35 14.73Q48.39 16.08 48.39 18.23L48.39 18.62L41.77 18.62Q36.24 18.62 33.67 20.7Q32.54 21.62 31.91 22.8Q31.1 24.31 31.1 26.25Q31.1 27.66 31.58 28.89Q31.85 29.58 32.28 30.22Q32.41 30.42 32.57 30.62Q33.71 32.08 35.62 32.95Q37.78 33.93 40.66 33.93Q43.54 33.93 45.58 33.04Q47.23 32.32 48.27 31.08Q48.51 30.79 48.72 30.48L48.72 33.59L54.39 33.59L54.39 18.57Q54.39 13.59 51.91 10.9Q51.66 10.64 51.39 10.39ZM104.72 10.39Q101.72 7.67 96.05 7.67Q92.88 7.67 90.05 8.49Q87.22 9.3 85.21 10.83L87.55 15.21Q88.99 14.01 91.08 13.34Q92.61 12.85 94.16 12.71Q94.75 12.66 95.33 12.66Q98.5 12.66 100.1 14.1Q100.42 14.39 100.68 14.73Q101.72 16.08 101.72 18.23L101.72 18.62L95.1 18.62Q89.57 18.62 87 20.7Q85.87 21.62 85.24 22.8Q84.43 24.31 84.43 26.25Q84.43 27.66 84.91 28.89Q85.18 29.58 85.6 30.22Q85.74 30.42 85.9 30.62Q87.04 32.08 88.94 32.95Q91.11 33.93 93.98 33.93Q96.87 33.93 98.91 33.04Q100.56 32.32 101.6 31.08Q101.84 30.79 102.05 30.48L102.05 33.59L107.72 33.59L107.72 18.57Q107.72 13.59 105.24 10.9Q104.99 10.64 104.72 10.39ZM151.6 32.62Q154.44 33.93 157.87 33.93Q161.53 33.93 164.47 32.49Q164.7 32.38 164.93 32.26Q166.71 31.29 168.04 29.9Q169.04 28.85 169.79 27.57Q170.12 27.01 170.39 26.41Q171.55 23.86 171.55 20.77Q171.55 17.68 170.37 15.12Q170.11 14.55 169.79 14.01Q169.07 12.78 168.11 11.77Q166.76 10.34 164.93 9.36Q164.67 9.22 164.41 9.09Q161.49 7.67 157.87 7.67Q154.48 7.67 151.67 8.96Q151.26 9.14 150.87 9.36Q149.05 10.33 147.7 11.75Q146.73 12.76 145.99 14.01Q145.69 14.53 145.44 15.07Q144.24 17.64 144.24 20.77Q144.24 23.89 145.42 26.47Q145.68 27.03 145.99 27.57Q146.75 28.87 147.77 29.92Q149.1 31.3 150.87 32.26Q151.23 32.45 151.6 32.62ZM243.48 32.62Q246.31 33.93 249.75 33.93Q253.4 33.93 256.35 32.49Q256.57 32.38 256.8 32.26Q258.58 31.29 259.92 29.9Q260.92 28.85 261.66 27.57Q261.99 27.01 262.26 26.41Q263.42 23.86 263.42 20.77Q263.42 17.68 262.25 15.12Q261.98 14.55 261.66 14.01Q260.94 12.78 259.98 11.77Q258.63 10.34 256.8 9.36Q256.54 9.22 256.28 9.09Q253.36 7.67 249.75 7.67Q246.35 7.67 243.54 8.96Q243.13 9.14 242.74 9.36Q240.93 10.33 239.57 11.75Q238.6 12.76 237.86 14.01Q237.56 14.53 237.31 15.07Q236.12 17.64 236.12 20.77Q236.12 23.89 237.29 26.47Q237.55 27.03 237.86 27.57Q238.62 28.87 239.64 29.92Q240.97 31.3 242.74 32.26Q243.1 32.45 243.48 32.62ZM317.26 10.39Q314.26 7.67 308.59 7.67Q305.43 7.67 302.59 8.49Q299.77 9.3 297.75 10.83L300.09 15.21Q301.54 14.01 303.62 13.34Q305.15 12.85 306.71 12.71Q307.29 12.66 307.88 12.66Q311.04 12.66 312.64 14.1Q312.97 14.39 313.22 14.73Q314.26 16.08 314.26 18.23L314.26 18.62L307.64 18.62Q302.11 18.62 299.54 20.7Q298.41 21.62 297.78 22.8Q296.98 24.31 296.98 26.25Q296.98 27.66 297.46 28.89Q297.73 29.58 298.15 30.22Q298.29 30.42 298.44 30.62Q299.59 32.08 301.49 32.95Q303.66 33.93 306.53 33.93Q309.41 33.93 311.45 33.04Q313.1 32.32 314.14 31.08Q314.38 30.79 314.59 30.48L314.59 33.59L320.26 33.59L320.26 18.57Q320.26 13.59 317.78 10.9Q317.53 10.64 317.26 10.39ZM347.99 8.99Q345.27 7.67 341.9 7.67Q339.26 7.67 337.07 8.58Q335.92 9.07 334.96 9.8Q334.11 10.46 333.4 11.32L333.4 7.96L327.7 7.96L327.7 42.91L333.7 42.91L333.7 30.48Q334.68 31.61 335.9 32.37Q338.41 33.93 341.9 33.93Q345.31 33.93 348.06 32.59Q348.33 32.45 348.6 32.3Q349.91 31.58 350.97 30.58Q352.3 29.33 353.23 27.66Q353.29 27.55 353.36 27.43Q354.91 24.52 354.91 20.77Q354.91 17.02 353.34 14.12Q353.29 14.02 353.23 13.92Q352.32 12.3 351.04 11.08Q349.95 10.06 348.6 9.31Q348.3 9.14 347.99 8.99ZM366.02 32.62Q368.85 33.93 372.29 33.93Q375.94 33.93 378.89 32.49Q379.12 32.38 379.34 32.26Q381.13 31.29 382.46 29.9Q383.46 28.85 384.21 27.57Q384.54 27.01 384.81 26.41Q385.97 23.86 385.97 20.77Q385.97 17.68 384.79 15.12Q384.53 14.55 384.21 14.01Q383.48 12.78 382.53 11.77Q381.17 10.34 379.34 9.36Q379.09 9.22 378.82 9.09Q375.9 7.67 372.29 7.67Q368.89 7.67 366.08 8.96Q365.68 9.14 365.28 9.36Q363.47 10.33 362.12 11.75Q361.14 12.76 360.41 14.01Q360.1 14.53 359.85 15.07Q358.66 17.64 358.66 20.77Q358.66 23.89 359.84 26.47Q360.09 27.03 360.41 27.57Q361.17 28.87 362.19 29.92Q363.52 31.3 365.28 32.26Q365.65 32.45 366.02 32.62ZM73.16 13.05L82.13 13.05L82.13 7.96L58.13 7.96L58.13 13.05L67.16 13.05L67.16 33.59L73.16 33.59L73.16 13.05ZM138.39 33.59L138.39 7.96L117.65 7.96L117.21 17.85Q117.03 21.64 116.76 23.68Q116.5 25.72 115.59 27.18Q115.18 27.83 114.61 28.19Q113.87 28.65 112.84 28.65Q112.36 28.65 111.69 28.51L111.41 33.55Q113.38 34.07 114.72 34.07Q116.58 34.07 117.93 33.24Q118.67 32.78 119.25 32.08Q120.92 30.09 121.61 26.66Q122.3 23.22 122.55 18.14L122.78 13.05L132.39 13.05L132.39 33.59L138.39 33.59ZM183.46 13.05L197.13 13.05L197.13 7.96L177.46 7.96L177.46 33.59L183.46 33.59L183.46 13.05ZM226.08 13.05L235.06 13.05L235.06 7.96L211.06 7.96L211.06 13.05L220.08 13.05L220.08 33.59L226.08 33.59L226.08 13.05ZM291.64 22.74Q290.46 21.02 287.9 20.25Q289.71 19.47 290.73 18.1Q290.77 18.05 290.81 18Q291.04 17.67 291.22 17.32Q291.84 16.11 291.84 14.58Q291.84 12.99 291.17 11.76Q290.51 10.55 289.2 9.7Q286.57 7.96 281.85 7.96L269.33 7.96L269.33 33.59L282.38 33.59Q287.47 33.59 290.06 31.73Q291.12 30.96 291.75 29.93Q292.66 28.44 292.66 26.4Q292.66 24.22 291.64 22.74ZM414.19 22.74Q413 21.02 410.45 20.25Q412.25 19.47 413.27 18.1Q413.31 18.05 413.35 18Q413.59 17.67 413.77 17.32Q414.38 16.11 414.38 14.58Q414.38 12.99 413.71 11.76Q413.05 10.55 411.75 9.7Q409.11 7.96 404.4 7.96L391.87 7.96L391.87 33.59L404.93 33.59Q410.01 33.59 412.6 31.73Q413.67 30.96 414.3 29.93Q415.2 28.44 415.2 26.4Q415.2 24.22 414.19 22.74ZM281.33 18.66L275.03 18.66L275.03 12.32L281.33 12.32Q284.53 12.32 285.53 13.81Q285.98 14.48 285.98 15.45Q285.98 16.49 285.5 17.19Q284.48 18.66 281.33 18.66ZM403.87 18.66L397.58 18.66L397.58 12.32L403.87 12.32Q407.07 12.32 408.07 13.81Q408.52 14.48 408.52 15.45Q408.52 16.49 408.04 17.19Q407.02 18.66 403.87 18.66ZM161.54 27.94Q159.93 28.79 157.87 28.79Q155.79 28.79 154.18 27.92Q153.22 27.41 152.42 26.58Q151.95 26.1 151.58 25.54Q150.29 23.58 150.29 20.77Q150.29 17.99 151.56 16.05Q151.94 15.47 152.42 14.97Q153.23 14.14 154.2 13.61Q155.81 12.76 157.87 12.76Q159.91 12.76 161.52 13.6Q162.52 14.12 163.35 14.97Q163.86 15.5 164.25 16.11Q165.5 18.04 165.5 20.77Q165.5 23.54 164.24 25.48Q163.85 26.07 163.35 26.58Q162.53 27.42 161.54 27.94ZM253.41 27.94Q251.8 28.79 249.75 28.79Q247.66 28.79 246.05 27.92Q245.09 27.41 244.3 26.58Q243.82 26.1 243.45 25.54Q242.16 23.58 242.16 20.77Q242.16 17.99 243.44 16.05Q243.81 15.47 244.3 14.97Q245.1 14.14 246.08 13.61Q247.68 12.76 249.75 12.76Q251.79 12.76 253.39 13.6Q254.39 14.12 255.22 14.97Q255.73 15.5 256.13 16.11Q257.37 18.04 257.37 20.77Q257.37 23.54 256.11 25.48Q255.72 26.07 255.22 26.58Q254.4 27.42 253.41 27.94ZM344.93 27.92Q343.31 28.79 341.23 28.79Q339.52 28.79 338.08 28.17Q337.7 28.01 337.34 27.8Q336.75 27.47 336.24 27.03Q335.27 26.2 334.61 25Q333.6 23.17 333.6 20.77Q333.6 18.38 334.61 16.55Q335.29 15.32 336.29 14.48Q336.78 14.06 337.34 13.74Q337.7 13.54 338.08 13.38Q339.52 12.76 341.23 12.76Q343.29 12.76 344.9 13.61Q345.87 14.14 346.68 14.97Q347.16 15.47 347.54 16.05Q348.81 17.99 348.81 20.77Q348.81 23.58 347.52 25.54Q347.15 26.1 346.68 26.58Q345.89 27.41 344.93 27.92ZM375.96 27.94Q374.35 28.79 372.29 28.79Q370.21 28.79 368.59 27.92Q367.63 27.41 366.84 26.58Q366.37 26.1 366 25.54Q364.71 23.58 364.71 20.77Q364.71 17.99 365.98 16.05Q366.36 15.47 366.84 14.97Q367.65 14.14 368.62 13.61Q370.23 12.76 372.29 12.76Q374.33 12.76 375.93 13.6Q376.93 14.12 377.76 14.97Q378.28 15.5 378.67 16.11Q379.92 18.04 379.92 20.77Q379.92 23.54 378.65 25.48Q378.27 26.07 377.76 26.58Q376.94 27.42 375.96 27.94ZM45.41 28.8Q43.85 29.56 41.91 29.56Q39.6 29.56 38.3 28.6Q37.68 28.14 37.35 27.51Q37.01 26.85 37.01 26.01Q37.01 24.98 37.48 24.26Q38.58 22.6 42.19 22.6L48.39 22.6L48.39 25.58Q48.01 26.57 47.36 27.33Q46.75 28.03 45.91 28.53Q45.66 28.67 45.41 28.8ZM98.74 28.8Q97.17 29.56 95.24 29.56Q92.93 29.56 91.63 28.6Q91 28.14 90.68 27.51Q90.34 26.85 90.34 26.01Q90.34 24.98 90.81 24.26Q91.91 22.6 95.52 22.6L101.72 22.6L101.72 25.58Q101.34 26.57 100.69 27.33Q100.08 28.03 99.23 28.53Q98.99 28.67 98.74 28.8ZM311.28 28.8Q309.72 29.56 307.78 29.56Q305.47 29.56 304.17 28.6Q303.55 28.14 303.23 27.51Q302.88 26.85 302.88 26.01Q302.88 24.98 303.36 24.26Q304.45 22.6 308.06 22.6L314.26 22.6L314.26 25.58Q313.89 26.57 313.23 27.33Q312.62 28.03 311.78 28.53Q311.53 28.67 311.28 28.8ZM286.41 27.63Q285.38 29.22 281.9 29.22L275.03 29.22L275.03 22.65L282.1 22.65Q284.54 22.65 285.69 23.49Q286.04 23.75 286.29 24.08Q286.85 24.84 286.85 26.01Q286.85 26.96 286.41 27.63ZM408.96 27.63Q407.92 29.22 404.45 29.22L397.58 29.22L397.58 22.65L404.64 22.65Q407.08 22.65 408.23 23.49Q408.59 23.75 408.83 24.08Q409.39 24.84 409.39 26.01Q409.39 26.96 408.96 27.63Z" fill="#000000" fill-opacity="1.000000" fill-rule="evenodd"/>
</svg>
