<svg width="722.304626" height="43.394531" viewBox="0 0 722.305 43.3945" fill="none" xmlns="http://www.w3.org/2000/svg" xmlns:xlink="http://www.w3.org/1999/xlink">
	<desc>
			Created with Pixso.
	</desc>
	<defs/>
	<path id="Специальные предложения" d="M10.06 32.96Q13.65 34.55 17.95 34.55Q22.07 34.55 25.51 33.11Q27.75 32.17 29.53 30.68Q30.48 29.89 31.3 28.94L27.26 25.1Q25.34 27.19 22.97 28.18Q20.81 29.08 18.29 29.08Q15.23 29.08 12.74 27.9Q12.41 27.75 12.09 27.57Q10.63 26.76 9.52 25.63Q8.54 24.63 7.82 23.37Q7.59 22.97 7.4 22.55Q6.29 20.17 6.29 17.27Q6.29 14.39 7.39 12.02Q7.59 11.6 7.82 11.19Q8.56 9.9 9.57 8.88Q10.67 7.77 12.09 6.98Q12.41 6.8 12.74 6.65Q15.23 5.47 18.29 5.47Q20.87 5.47 23.05 6.39Q25.38 7.38 27.26 9.41L31.3 5.61Q30.42 4.59 29.39 3.75Q27.67 2.34 25.53 1.44Q22.12 0 18 0Q13.74 0 10.17 1.56Q9.47 1.87 8.81 2.23Q6.51 3.48 4.76 5.27Q3.38 6.67 2.35 8.4Q1.76 9.38 1.32 10.42Q0 13.56 0 17.27Q0 21.09 1.39 24.31Q1.8 25.25 2.33 26.15Q3.32 27.83 4.64 29.2Q6.41 31.04 8.76 32.33Q9.4 32.67 10.06 32.96ZM93.03 23.17Q93.12 22.03 93.12 21.41Q93.12 17.47 91.46 14.47Q90.56 12.85 89.29 11.62Q88.21 10.58 86.85 9.82Q86.51 9.63 86.17 9.46Q83.48 8.15 80.16 8.15Q77.01 8.15 74.38 9.32Q73.85 9.56 73.34 9.84Q71.8 10.69 70.6 11.89Q69.45 13.04 68.62 14.51Q68.28 15.1 68.01 15.72Q66.92 18.25 66.92 21.25Q66.92 24.37 68.09 26.95Q68.35 27.51 68.66 28.05Q69.3 29.13 70.12 30.04Q71.58 31.66 73.63 32.74Q76.85 34.41 81.07 34.41Q84.39 34.41 87.03 33.36Q88.95 32.58 90.39 31.27Q90.93 30.79 91.4 30.23L88.17 26.54Q87.18 27.55 85.99 28.19Q83.91 29.32 81.21 29.32Q78.2 29.32 76.08 27.94Q75.87 27.81 75.67 27.66Q74.72 26.96 74.08 26.04Q73.22 24.8 72.92 23.17L93.03 23.17ZM185.07 10.87Q182.07 8.15 176.4 8.15Q173.23 8.15 170.4 8.97Q167.57 9.78 165.56 11.32L167.9 15.69Q169.34 14.49 171.43 13.82Q172.96 13.33 174.52 13.19Q175.1 13.14 175.68 13.14Q178.85 13.14 180.45 14.58Q180.77 14.87 181.03 15.21Q182.07 16.56 182.07 18.71L182.07 19.1L175.45 19.1Q169.92 19.1 167.35 21.18Q166.22 22.1 165.59 23.28Q164.79 24.79 164.79 26.73Q164.79 28.14 165.26 29.37Q165.53 30.06 165.96 30.7Q166.1 30.9 166.25 31.1Q167.39 32.56 169.3 33.43Q171.46 34.41 174.34 34.41Q177.22 34.41 179.26 33.52Q180.91 32.8 181.95 31.56Q182.19 31.27 182.4 30.96L182.4 34.07L188.07 34.07L188.07 19.05Q188.07 14.07 185.59 11.39Q185.34 11.12 185.07 10.87ZM351.89 23.17Q351.98 22.03 351.98 21.41Q351.98 17.47 350.32 14.47Q349.43 12.85 348.16 11.62Q347.07 10.58 345.71 9.82Q345.38 9.63 345.03 9.46Q342.34 8.15 339.02 8.15Q335.87 8.15 333.24 9.32Q332.71 9.56 332.2 9.84Q330.66 10.69 329.47 11.89Q328.31 13.04 327.48 14.51Q327.15 15.1 326.88 15.72Q325.78 18.25 325.78 21.25Q325.78 24.37 326.96 26.95Q327.21 27.51 327.53 28.05Q328.16 29.13 328.98 30.04Q330.44 31.66 332.5 32.74Q335.72 34.41 339.94 34.41Q343.25 34.41 345.89 33.36Q347.81 32.58 349.25 31.27Q349.79 30.79 350.26 30.23L347.04 26.54Q346.05 27.55 344.86 28.19Q342.77 29.32 340.08 29.32Q337.07 29.32 334.94 27.94Q334.73 27.81 334.53 27.66Q333.59 26.96 332.95 26.04Q332.08 24.8 331.78 23.17L351.89 23.17ZM424.79 9.48Q422.07 8.15 418.7 8.15Q416.06 8.15 413.87 9.07Q412.72 9.55 411.76 10.28Q410.91 10.94 410.2 11.8L410.2 8.44L404.5 8.44L404.5 43.39L410.5 43.39L410.5 30.96Q411.48 32.09 412.71 32.85Q415.21 34.41 418.7 34.41Q422.11 34.41 424.86 33.07Q425.13 32.93 425.4 32.78Q426.71 32.06 427.77 31.06Q429.1 29.81 430.03 28.14Q430.09 28.03 430.16 27.92Q431.71 25 431.71 21.25Q431.71 17.5 430.14 14.6Q430.09 14.5 430.03 14.4Q429.12 12.78 427.84 11.56Q426.75 10.54 425.4 9.79Q425.1 9.63 424.79 9.48ZM461.57 23.17Q461.66 22.03 461.66 21.41Q461.66 17.47 460 14.47Q459.11 12.85 457.84 11.62Q456.75 10.58 455.39 9.82Q455.06 9.63 454.71 9.46Q452.02 8.15 448.7 8.15Q445.55 8.15 442.92 9.32Q442.39 9.56 441.88 9.84Q440.34 10.69 439.15 11.89Q437.99 13.04 437.16 14.51Q436.83 15.1 436.56 15.72Q435.46 18.25 435.46 21.25Q435.46 24.37 436.64 26.95Q436.89 27.51 437.21 28.05Q437.84 29.13 438.66 30.04Q440.12 31.66 442.18 32.74Q445.4 34.41 449.62 34.41Q452.93 34.41 455.57 33.36Q457.49 32.58 458.93 31.27Q459.47 30.79 459.94 30.23L456.72 26.54Q455.73 27.55 454.54 28.19Q452.45 29.32 449.76 29.32Q446.75 29.32 444.62 27.94Q444.41 27.81 444.21 27.66Q443.27 26.96 442.63 26.04Q441.76 24.8 441.46 23.17L461.57 23.17ZM537.09 33.11Q539.92 34.41 543.36 34.41Q547.01 34.41 549.96 32.97Q550.19 32.86 550.42 32.74Q552.2 31.77 553.53 30.38Q554.53 29.34 555.28 28.05Q555.61 27.49 555.88 26.9Q557.04 24.34 557.04 21.25Q557.04 18.16 555.86 15.6Q555.6 15.03 555.28 14.49Q554.56 13.26 553.6 12.25Q552.24 10.82 550.42 9.84Q550.16 9.7 549.9 9.57Q546.97 8.15 543.36 8.15Q539.96 8.15 537.16 9.44Q536.75 9.62 536.35 9.84Q534.54 10.81 533.19 12.23Q532.21 13.24 531.48 14.49Q531.18 15.01 530.93 15.55Q529.73 18.12 529.73 21.25Q529.73 24.37 530.91 26.95Q531.17 27.51 531.48 28.05Q532.24 29.35 533.26 30.4Q534.59 31.78 536.35 32.74Q536.72 32.93 537.09 33.11ZM627.31 23.17Q627.41 22.03 627.41 21.41Q627.41 17.47 625.74 14.47Q624.85 12.85 623.58 11.62Q622.5 10.58 621.14 9.82Q620.8 9.63 620.46 9.46Q617.77 8.15 614.45 8.15Q611.3 8.15 608.66 9.32Q608.13 9.56 607.63 9.84Q606.09 10.69 604.89 11.89Q603.74 13.04 602.9 14.51Q602.57 15.1 602.3 15.72Q601.2 18.25 601.2 21.25Q601.2 24.37 602.38 26.95Q602.64 27.51 602.95 28.05Q603.58 29.13 604.41 30.04Q605.87 31.66 607.92 32.74Q611.14 34.41 615.36 34.41Q618.68 34.41 621.31 33.36Q623.24 32.58 624.68 31.27Q625.21 30.79 625.68 30.23L622.46 26.54Q621.47 27.55 620.28 28.19Q618.2 29.32 615.5 29.32Q612.49 29.32 610.36 27.94Q610.16 27.81 609.96 27.66Q609.01 26.96 608.37 26.04Q607.51 24.8 607.2 23.17L627.31 23.17ZM61.01 34.07L61.01 8.44L36.43 8.44L36.43 34.07L42.43 34.07L42.43 13.53L55.05 13.53L55.05 34.07L61.01 34.07ZM127.82 39.98L127.82 28.99L123.94 28.99L123.94 8.44L117.94 8.44L117.94 28.99L105.7 28.99L105.7 8.44L99.7 8.44L99.7 34.07L122.21 34.07L122.21 39.98L127.82 39.98ZM139.15 8.44L133.15 8.44L133.15 34.07L138.67 34.07L152.78 17.17L152.78 34.07L158.78 34.07L158.78 8.44L153.31 8.44L139.15 25.34L139.15 8.44ZM218.74 34.07L218.74 8.44L198 8.44L197.57 18.33Q197.38 22.12 197.11 24.16Q196.85 26.2 195.94 27.66Q195.54 28.31 194.96 28.67Q194.22 29.13 193.2 29.13Q192.71 29.13 192.05 28.99L191.77 34.03Q193.73 34.55 195.07 34.55Q196.94 34.55 198.29 33.72Q199.02 33.26 199.61 32.56Q201.27 30.57 201.96 27.14Q202.65 23.7 202.9 18.62L203.13 13.53L212.74 13.53L212.74 34.07L218.74 34.07ZM247.18 19.1Q244.57 16.89 239.67 16.89L232.8 16.85L232.8 8.44L226.8 8.44L226.8 34.07L238.8 34.12Q244.04 34.17 246.91 31.87Q247.85 31.12 248.48 30.16Q249.79 28.19 249.79 25.34Q249.79 22.4 248.41 20.43Q247.89 19.7 247.18 19.1ZM261.07 8.44L255.07 8.44L255.07 34.07L261.07 34.07L261.07 23.95L273.99 23.95L273.99 34.07L279.99 34.07L279.99 8.44L273.99 8.44L273.99 18.86L261.07 18.86L261.07 8.44ZM308.02 19.1Q305.43 16.89 300.53 16.89L294.05 16.85L294.05 8.44L288.05 8.44L288.05 34.07L299.66 34.12Q304.9 34.17 307.75 31.87Q308.66 31.13 309.28 30.21Q310.61 28.22 310.61 25.34Q310.61 22.36 309.2 20.38Q308.7 19.68 308.02 19.1ZM319.92 8.44L313.92 8.44L313.92 34.07L319.92 34.07L319.92 8.44ZM396.38 34.07L396.38 8.44L371.81 8.44L371.81 34.07L377.81 34.07L377.81 13.53L390.43 13.53L390.43 34.07L396.38 34.07ZM495.27 39.78L495.27 28.99L491.47 28.99L491.47 8.44L470.35 8.44L470.01 17.22Q469.73 22.79 468.84 25.85Q468.23 27.93 466.9 28.63Q466.28 28.96 465.5 28.99L464.31 28.99L464.31 39.78L469.87 39.78L469.87 34.07L489.65 34.07L489.65 39.78L495.27 39.78ZM523.88 34.07L523.88 8.44L503.14 8.44L502.7 18.33Q502.51 22.12 502.25 24.16Q501.99 26.2 501.07 27.66Q500.67 28.31 500.09 28.67Q499.36 29.13 498.33 29.13Q497.85 29.13 497.18 28.99L496.9 34.03Q498.87 34.55 500.21 34.55Q502.07 34.55 503.42 33.72Q504.16 33.26 504.74 32.56Q506.41 30.57 507.1 27.14Q507.79 23.7 508.03 18.62L508.27 13.53L517.88 13.53L517.88 34.07L523.88 34.07ZM582.09 23.8L586.42 23.8L592.65 34.07L599.81 34.07L591.36 20.83L599.13 8.44L592.75 8.44L586.47 18.8L582.09 18.8L582.09 8.44L576.14 8.44L576.14 18.8L571.72 18.8L565.49 8.44L559.1 8.44L566.88 20.83L558.48 34.07L565.58 34.07L571.83 23.8L576.14 23.8L576.14 34.07L582.09 34.07L582.09 23.8ZM639.98 8.44L633.98 8.44L633.98 34.07L639.98 34.07L639.98 23.95L652.9 23.95L652.9 34.07L658.9 34.07L658.9 8.44L652.9 8.44L652.9 18.86L639.98 18.86L639.98 8.44ZM672.96 8.44L666.96 8.44L666.96 34.07L672.48 34.07L686.59 17.17L686.59 34.07L692.59 34.07L692.59 8.44L687.12 8.44L672.96 25.34L672.96 8.44ZM722.3 34.07L722.3 8.44L710.55 8.44Q705.07 8.44 701.94 10.85Q700.85 11.69 700.14 12.78Q698.83 14.79 698.83 17.66Q698.83 20.32 700.04 22.2Q700.16 22.39 700.29 22.58Q700.35 22.66 700.41 22.74Q701.87 24.61 704.55 25.53L698.5 34.07L704.93 34.07L710.16 26.35L716.93 26.35L716.93 34.07L722.3 34.07ZM76.6 13.77Q78.17 12.96 80.16 12.96Q82.26 12.96 83.86 13.85Q84.5 14.2 85.06 14.69Q85.76 15.31 86.27 16.06Q87.16 17.41 87.41 19.19L72.87 19.19Q73.15 17.29 74.15 15.89Q74.63 15.22 75.28 14.67Q75.9 14.14 76.6 13.77ZM335.47 13.77Q337.03 12.96 339.02 12.96Q341.12 12.96 342.73 13.85Q343.36 14.2 343.92 14.69Q344.63 15.31 345.13 16.06Q346.03 17.41 346.28 19.19L331.73 19.19Q332.02 17.29 333.02 15.89Q333.5 15.22 334.15 14.67Q334.77 14.14 335.47 13.77ZM445.15 13.77Q446.71 12.96 448.7 12.96Q450.8 12.96 452.41 13.85Q453.04 14.2 453.6 14.69Q454.31 15.31 454.81 16.06Q455.71 17.41 455.96 19.19L441.41 19.19Q441.7 17.29 442.7 15.89Q443.18 15.22 443.83 14.67Q444.45 14.14 445.15 13.77ZM610.89 13.77Q612.46 12.96 614.45 12.96Q616.54 12.96 618.15 13.85Q618.79 14.2 619.34 14.69Q620.05 15.31 620.55 16.06Q621.45 17.41 621.7 19.19L607.16 19.19Q607.44 17.29 608.44 15.89Q608.92 15.22 609.57 14.67Q610.19 14.14 610.89 13.77ZM421.73 28.4Q420.11 29.27 418.03 29.27Q416.32 29.27 414.88 28.65Q414.5 28.49 414.14 28.28Q413.55 27.95 413.04 27.51Q412.07 26.68 411.41 25.48Q410.4 23.66 410.4 21.25Q410.4 18.86 411.41 17.03Q412.09 15.81 413.09 14.96Q413.58 14.54 414.14 14.22Q414.5 14.02 414.88 13.86Q416.32 13.24 418.03 13.24Q420.09 13.24 421.7 14.1Q422.67 14.62 423.48 15.45Q423.96 15.95 424.34 16.53Q425.61 18.47 425.61 21.25Q425.61 24.06 424.32 26.02Q423.95 26.58 423.48 27.07Q422.69 27.89 421.73 28.4ZM547.03 28.42Q545.42 29.27 543.36 29.27Q541.28 29.27 539.66 28.4Q538.71 27.89 537.91 27.07Q537.44 26.58 537.07 26.02Q535.78 24.06 535.78 21.25Q535.78 18.47 537.05 16.53Q537.43 15.95 537.91 15.45Q538.72 14.62 539.69 14.1Q541.3 13.24 543.36 13.24Q545.4 13.24 547 14.08Q548 14.6 548.83 15.45Q549.35 15.98 549.74 16.59Q550.99 18.52 550.99 21.25Q550.99 24.02 549.73 25.96Q549.34 26.55 548.83 27.07Q548.02 27.9 547.03 28.42ZM705.69 15.26Q707.03 13.48 710.73 13.48L716.93 13.48L716.93 22.17L710.55 22.17Q707.02 22.17 705.71 20.46Q704.93 19.45 704.93 17.85Q704.93 16.27 705.69 15.26ZM474.77 24.86Q475.3 22.07 475.49 17.66L475.64 13.53L485.47 13.53L485.47 28.99L472.85 28.99Q474.24 27.64 474.77 24.86ZM242.3 28.6Q240.91 29.75 238.27 29.7L232.8 29.66L232.8 20.97L238.27 21.02Q241 21.07 242.35 22.07Q242.63 22.28 242.86 22.55Q243.7 23.53 243.7 25.24Q243.7 26.93 242.88 28.01Q242.63 28.33 242.3 28.6ZM303.16 28.6Q301.78 29.75 299.13 29.7L294.05 29.66L294.05 20.97L299.13 21.02Q301.88 21.07 303.21 22.07Q303.49 22.28 303.72 22.55Q304.56 23.53 304.56 25.24Q304.56 26.93 303.74 28.01Q303.49 28.33 303.16 28.6ZM179.09 29.28Q177.53 30.04 175.59 30.04Q173.28 30.04 171.98 29.08Q171.36 28.62 171.03 27.99Q170.69 27.33 170.69 26.49Q170.69 25.46 171.16 24.74Q172.26 23.08 175.87 23.08L182.07 23.08L182.07 26.06Q181.69 27.05 181.04 27.81Q180.43 28.51 179.59 29.01Q179.34 29.15 179.09 29.28Z" fill="#000000" fill-opacity="1.000000" fill-rule="evenodd"/>
</svg>
